
    <svg filter="url(#a)" width="60" height="60.123" class="image-svg-svg primary" style="overflow:visible" xmlns="http://www.w3.org/2000/svg" transform="matrix(0 -1 -1 0 0 0)">
        <svg xmlns="http://www.w3.org/2000/svg" viewBox="0 -0.003 94.23 94.423">
          <path d="M55.14 75.75a46.1 46.1 0 0 1 10.32-13.64 43.41 43.41 0 0 1 26.73-11c1.55-.11 2.12.37 2 1.93s0 3.27 0 4.82c-22 2.4-34 14.54-36.54 36.56h-5.56c-1.44 0-1.18-1.06-1.21-1.9A49.7 49.7 0 0 0 46.61 74a50.3 50.3 0 0 0-18.13-21.73 3.21 3.21 0 0 0-2.55-.15c-2.3.86-4.52 2-7.16 3.12 15.47 8.55 23.85 21.28 24.57 39h-7.06c-.35-9.87-3.75-18.46-10.73-25.42A36.07 36.07 0 0 0 .22 58.14v-6.78c3.24-.43 6.52-.68 9.72-1.33a50.27 50.27 0 0 0 32.17-21.27 2.49 2.49 0 0 0 .17-3c-1.13-2.18-2.09-4.45-2.89-6.2-3.32 4.08-6.39 8.6-10.23 12.34C21.7 39.16 12.5 42.82 2.07 43.41.37 43.5 0 42.9 0 41.32c0-4.77 0-4.77 4.75-5.32 15.32-1.64 28.89-14.94 31-30.42.24-1.76.42-3.52.65-5.5a50.45 50.45 0 0 1 5.8.13c.46.05 1.08 1.23 1.11 1.92a49.94 49.94 0 0 0 3.74 17.23 50.72 50.72 0 0 0 18.59 22.85 3.21 3.21 0 0 0 2.56.26c2.36-.88 4.64-2 7.25-3.2-.65-.41-1.18-.77-1.72-1.08C59.65 30.11 52 18 51 1.8 50.86.52 51.27.13 52.53.07c5.13-.22 5.13-.25 5.79 4.65a36.16 36.16 0 0 0 32.91 31.45c2.94.27 2.94.27 3 3.19 0 3.91 0 3.91-3.94 4.28-16 1.5-28.63 8.85-38 21.91a2.68 2.68 0 0 0-.29 3.31c1.18 2.14 2 4.36 3.14 6.89zm-7.36-16.53L59 48 47.2 36.11 35.91 47.26c3.55 3.59 7.79 7.85 11.87 11.96z" fill="#a0ffa2" style="--darkreader-inline-fill:#006c1d"/>
        </svg>
      </svg>
      
